# AST/ASF file generated using VICON BodyLanguage
# -----------------------------------------------
:version 1.10
:name VICON
:units
  mass 1.0
  length 0.45
  angle deg
:documentation
   .ast/.asf automatically generated from VICON data using
   VICON BodyBuilder and BodyLanguage model FoxedUp or BRILLIANT.MOD
:root
   order TX TY TZ RX RY RZ
   axis XYZ
   position 0 0 0  
   orientation 0 0 0 
:bonedata
  begin
     id 1 
     name lhipjoint
     direction 0.692814 -0.645514 0.321437 
     length 2.38754 
     axis 0 0 0  XYZ
  end
  begin
     id 2 
     name lfemur
     direction 0.34202 -0.939693 0  
     length 6.41921  
     axis 0 0 20  XYZ
    dof rx ry rz
    limits (-160.0 20.0)
           (-70.0 70.0)
           (-60.0 70.0)
  end
  begin
     id 3 
     name ltibia
     direction 0.34202 -0.939693 0   
     length 6.98247   
     axis 0 0 20   XYZ
    dof rx
    limits (-10.0 170.0)
  end
  begin
     id 4 
     name lfoot
     direction 0.0947186 -0.260237 0.960888   
     length 1.83034   
     axis -90 7.62852e-016 20   XYZ
    dof rx rz
    limits (-45.0 90.0)
           (-70.0 20.0)
  end
  begin
     id 5 
     name ltoes
     direction 1.53538e-011 -4.21952e-011 1   
     length 0.920499   
     axis -90 7.62852e-016 20   XYZ
    dof rx
    limits (-90.0 20.0)
  end
  begin
     id 6 
     name rhipjoint
     direction -0.631686 -0.693949 0.345555   
     length 2.2209  
     axis 0 0 0  XYZ 
  end
  begin
     id 7 
     name rfemur
     direction -0.34202 -0.939693 0   
     length 6.49542   
     axis 0 0 -20   XYZ
    dof rx ry rz
    limits (-160.0 20.0)
           (-70.0 70.0)
           (-70.0 60.0)
  end
  begin
     id 8 
     name rtibia
     direction -0.34202 -0.939693 0   
     length 7.21712   
     axis 0 0 -20   XYZ
    dof rx
    limits (-10.0 170.0)
 end
 begin
     id 9 
     name rfoot
     direction -0.0825378 -0.226771 0.970444   
     length 1.89724  
     axis -90 -7.62852e-016 -20   XYZ
    dof rx rz
    limits (-45.0 90.0)
           (-20.0 70.0)
  end
  begin
     id 10 
     name rtoes
     direction -1.53515e-011 -4.22016e-011 1   
     length 0.955868   
     axis -90 -7.62852e-016 -20   XYZ
    dof rx
    limits (-90.0 20.0)
  end
  begin
     id 11 
     name lowerback
     direction -0.0104711 0.984802 -0.173368   
     length 1.84931   
     axis 0 0 0   XYZ
    dof rx ry rz
    limits (-20.0 45.0)
           (-30.0 30.0)
           (-30.0 30.0)
  end
  begin
     id 12 
     name upperback
     direction -0.00286433 0.999996 -0.000382853   
     length 1.85768   
     axis 0 0 0   XYZ
    dof rx ry rz
    limits (-20.0 45.0)
           (-30.0 30.0)
           (-30.0 30.0)
  end
  begin
     id 13 
     name thorax
     direction 0.00167534 0.996793 0.0800069   
     length 1.92   
     axis 0 0 0   XYZ
    dof rx ry rz
    limits (-20.0 45.0)
           (-30.0 30.0)
           (-30.0 30.0)
  end
  begin
     id 14 
     name lowerneck
     direction -0.0672491 0.995415 0.068018   
     length 1.58923   
     axis 0 0 0   XYZ
    dof rx ry rz
    limits (-20.0 45.0)
           (-30.0 30.0)
           (-30.0 30.0)
  end
  begin
     id 15 
     name upperneck
     direction 0.0958019 0.982476 -0.159884   
     length 1.60189   
     axis 0 0 0   XYZ
    dof rx ry rz
    limits (-20.0 45.0)
           (-30.0 30.0)
           (-30.0 30.0)
  end
  begin
     id 16
     name head
     direction 0.032989 0.997338 -0.0650226  
     length 1.61681  
     axis 0 0 0   XYZ
    dof rx ry rz
    limits (-20.0 45.0)
           (-30.0 30.0)
           (-30.0 30.0)
  end
  begin
     id 17 
     name lclavicle
     direction 0.954279 0.298875 -0.00496069  
     length 2.99449  
     axis 0 0 0   XYZ
    dof ry rz
    limits (-20.0 10.0)
           (0.0 20.0)
  end
  begin
     id 18 
     name lhumerus
     direction 1 -4.48985e-011 -4.2057e-027   
     length 4.79185   
     axis 180 -30 -90   XYZ
    dof rx ry rz
    limits (-60.0 90.0)
           (-90.0 90.0)
           (-90.0 90.0)
  end
  begin
     id 19
     name lradius
     direction 1 -4.48945e-011 1.15441e-028   
     length 2.65553   
     axis 180 -30 -90   XYZ
    dof rx
    limits (-10.0 170.0)
  end
  begin
     id 20
     name lwrist
     direction 1 -4.4899e-011 4.8894e-028   
     length 1.32777   
     axis -2.56392e-016 90 90   XYZ
    dof ry
    limits (-180.0 0.0)
 end
  begin
     id 21 
     name lhand
     direction 1 -4.48908e-011 9.7788e-028   
     length 0.743904   
     axis -6.23971e-016 90 90   XYZ
    dof rx rz
    limits (-90.0 90.0)
           (-45.0 45.0)
  end
  begin
     id 22 
     name lfingers
     direction 1 -4.49068e-011 1.95576e-027   
     length 0.599754   
     axis -1.24794e-015 90 90   XYZ
    dof rx
    limits (0.0 90.0)
  end
  begin
     id 23
     name lthumb
     direction 0.707107 -6.34883e-011 0.707107   
     length 0.861131   
     axis -90 45 2.85299e-015   XYZ
    dof rx rz
    limits (-45.0 45.0)
           (-45.0 45.0)
  end
  begin
     id 24 
     name rclavicle
     direction -0.957921 0.286916 0.00811568   
     length 3.06817  
     axis 0 0 0   XYZ 
    dof ry rz
    limits (-10.0 20.0)
           (-20.0 0.0)
  end
  begin
     id 25 
     name rhumerus
     direction -1 -4.48971e-011 -3.07942e-027  
     length 4.77254   
     axis 180 30 90   XYZ
    dof rx ry rz
    limits (-90.0 60.0)
           (-90.0 90.0)
           (-90.0 90.0)
  end
  begin
     id 26 
     name rradius
     direction -1 -4.48957e-011 -9.6815e-028   
     length 2.75995   
     axis 180 30 90   XYZ
    dof rx
    limits (-10.0 170.0)
  end
  begin
     id 27 
     name rwrist
     direction -1 -4.48979e-011 4.8894e-028   
     length 1.37997   
     axis -2.56392e-016 -90 -90   XYZ
    dof ry
    limits (-180.0 0.0)
  end
  begin
     id 28
     name rhand
     direction -1 -4.48906e-011 9.7788e-028   
     length 0.701619   
     axis -6.23971e-016 -90 -90   XYZ
    dof rx rz
    limits (-90.0 90.0)
           (-45.0 45.0)
  end
  begin
     id 29
     name rfingers
     direction -1 -4.49018e-011 1.95576e-027   
     length 0.565663   
     axis -1.24794e-015 -90 -90   XYZ
    dof rx
    limits (0.0 90.0)
  end
  begin
     id 30
     name rthumb
     direction -0.707107 -6.34881e-011 0.707107   
     length 0.812183   
     axis -90 -45 -2.85299e-015   XYZ
    dof rx rz
    limits (-45.0 45.0)
           (-45.0 45.0)
  end
:hierarchy
  begin
    root lhipjoint rhipjoint lowerback
    lhipjoint lfemur
    lfemur ltibia
    ltibia lfoot
    lfoot ltoes
    rhipjoint rfemur
    rfemur rtibia
    rtibia rfoot
    rfoot rtoes
    lowerback upperback
    upperback thorax
    thorax lowerneck lclavicle rclavicle
    lowerneck upperneck
    upperneck head
    lclavicle lhumerus
    lhumerus lradius
    lradius lwrist
    lwrist lhand lthumb
    lhand lfingers
    rclavicle rhumerus
    rhumerus rradius
    rradius rwrist
    rwrist rhand rthumb
    rhand rfingers
  end

#!OML:ASF F:\VICON\USERDATA\INSTALL\rory3\rory3.ASF
:FULLY-SPECIFIED
:DEGREES
725
root 0.653333 15.2556 -1.79572 -4.61024 -17.8401 4.45828
lowerback 21.2721 -6.4902 -1.60159
upperback 13.7424 -8.97362 3.62842
thorax 4.21798 -4.97784 6.26987
lowerneck 0.267586 -5.24905 -14.3388
upperneck 33.057 -9.99045 11.089
head 12.0917 -5.28183 5.71185
rclavicle -1.90833e-014 3.97569e-014
rhumerus 45.2276 7.35991 -85.4569
rradius 17.7925
rwrist -2.61705
rhand -0.315549 3.8394
rfingers 7.12502
rthumb 25.2881 -24.5044
lclavicle -1.90833e-014 3.97569e-014
lhumerus 53.8556 23.0522 155.11
lradius 3.51599
lwrist 6.10279
lhand -23.8323 30.5678
lfingers 7.12502
lthumb 2.63935 60.5312
rfemur -25.2242 14.8783 10.7713
rtibia 46.1584
rfoot -15.5153 -2.00575
rtoes -21.902
lfemur -15.289 7.46497 -20.6412
ltibia 40.9808
lfoot -17.2191 6.41909
ltoes -14.4737
726
root 0.648466 15.2391 -1.81668 -4.67739 -17.5268 4.26955
lowerback 21.3598 -6.32184 -1.43397
upperback 13.814 -8.72436 3.69079
thorax 4.20819 -4.84324 6.21583
lowerneck 0.540298 -5.28556 -14.5748
upperneck 33.0215 -10.0591 11.18
head 12.0554 -5.33523 5.78938
rclavicle 7.79236e-014 -3.10104e-014
rhumerus 44.9295 7.14087 -86.0117
rradius 17.4851
rwrist -2.05081
rhand -0.428613 3.97585
rfingers 7.12502
rthumb 25.1798 -24.3832
lclavicle 7.79236e-014 -3.10104e-014
lhumerus 53.4468 22.9873 154.458
lradius 3.69853
lwrist 6.81606
lhand -23.9236 30.7476
lfingers 7.12502
lthumb 2.55113 60.7121
rfemur -25.2198 14.6502 11.0081
rtibia 46.432
rfoot -15.6211 -1.98606
rtoes -21.2782
lfemur -15.4977 7.34898 -20.418
ltibia 41.3829
lfoot -17.2856 6.25746
ltoes -14.5423
727
root 0.642479 15.2219 -1.84007 -4.75648 -17.2303 4.13434
lowerback 21.5111 -6.18774 -1.44766
upperback 13.9103 -8.55007 3.69459
thorax 4.22451 -4.75871 6.21396
lowerneck 0.638441 -5.30911 -14.7682
upperneck 33.1101 -10.0671 11.1377
head 12.0868 -5.36601 5.81262
rclavicle 7.15625e-015 2.38542e-014
rhumerus 44.6592 7.03106 -86.8527
rradius 17.141
rwrist -1.08128
rhand -0.630745 4.30167
rfingers 7.12502
rthumb 24.9861 -24.0845
lclavicle 7.15625e-015 2.38542e-014
lhumerus 53.286 22.9398 153.726
lradius 3.75255
lwrist 7.53093
lhand -24.1981 30.595
lfingers 7.12502
lthumb 2.28603 60.5625
rfemur -25.2668 14.4037 11.1891
rtibia 46.7448
rfoot -15.7043 -1.9815
rtoes -20.8258
lfemur -15.7185 7.28196 -20.2377
ltibia 41.7743
lfoot -17.2334 6.12808
ltoes -14.8416
728
root 0.635402 15.2025 -1.86224 -4.86807 -16.8882 4.17395
lowerback 21.6434 -6.05737 -1.60843
upperback 13.9946 -8.40369 3.63249
thorax 4.2506 -4.69438 6.22355
lowerneck 0.783814 -5.32815 -14.8582
upperneck 33.1157 -10.0302 10.9515
head 12.0517 -5.37748 5.76204
rclavicle 2.70347e-014 -1.90833e-014
rhumerus 44.3617 6.97211 -87.7295
rradius 16.8207
rwrist -0.184561
rhand -0.872808 4.61187
rfingers 7.12502
rthumb 24.7541 -23.8064
lclavicle 2.70347e-014 -1.90833e-014
lhumerus 53.1796 22.8725 152.952
lradius 3.7395
lwrist 8.3014
lhand -24.5167 30.4025
lfingers 7.12502
lthumb 1.97837 60.3731
rfemur -25.3388 14.1501 11.1718
rtibia 47.0879
rfoot -15.7735 -2.08133
rtoes -20.9334
lfemur -15.9462 7.22597 -20.2444
ltibia 42.1581
lfoot -17.2238 5.93433
ltoes -14.7738
729
root 0.625998 15.1847 -1.88444 -4.89384 -16.5048 4.25063
lowerback 21.6468 -5.92592 -1.75628
upperback 14.0728 -8.25437 3.5486
thorax 4.3257 -4.62577 6.18648
lowerneck 0.972187 -5.33005 -14.9238
upperneck 33.0109 -9.97938 10.8207
head 11.9602 -5.37397 5.72813
rclavicle -6.36111e-015 -3.18055e-015
rhumerus 44.1077 7.0358 -88.5014
rradius 16.4788
rwrist 0.0242877
rhand -1.20385 4.59509
rfingers 7.12502
rthumb 24.4368 -23.8663
lclavicle -6.36111e-015 -3.18055e-015
lhumerus 53.0038 22.806 152.092
lradius 3.84615
lwrist 9.10016
lhand -24.6002 30.3897
lfingers 7.12502
lthumb 1.89768 60.361
rfemur -25.5061 13.8825 11.096
rtibia 47.4431
rfoot -15.8691 -2.17797
rtoes -20.8041
lfemur -16.2588 7.19335 -20.2946
ltibia 42.5046
lfoot -17.1987 5.70215
ltoes -14.61
730
root 0.612052 15.1691 -1.9117 -4.95236 -16.2026 4.23525
lowerback 21.7771 -5.72358 -1.93162
upperback 14.1659 -8.01866 3.5342
thorax 4.36146 -4.52102 6.24137
lowerneck 1.02134 -5.333 -15.1846
upperneck 33.0442 -9.9561 10.8491
head 11.9811 -5.38894 5.79195
rclavicle 5.32743e-014 -5.48646e-014
rhumerus 43.9142 7.18559 -89.0364
rradius 16.1402
rwrist 0.0831181
rhand -1.54638 4.54528
rfingers 7.12502
rthumb 24.1084 -23.96
lclavicle 5.32743e-014 -5.48646e-014
lhumerus 52.7625 22.6671 151.302
lradius 4.15777
lwrist 9.89434
lhand -24.6283 30.6006
lfingers 7.12502
lthumb 1.87053 60.5721
rfemur -25.6417 13.7304 11.164
rtibia 47.7991
rfoot -15.9388 -2.29691
rtoes -20.7357
lfemur -16.4934 7.22918 -20.2136
ltibia 42.8167
lfoot -17.0906 5.53687
ltoes -15.0559
731
root 0.598764 15.1525 -1.93954 -5.12361 -15.875 4.2188
lowerback 22.0326 -5.4301 -2.02155
upperback 14.3044 -7.64872 3.4547
thorax 4.34481 -4.33735 6.16924
lowerneck 1.07662 -5.4606 -15.2057
upperneck 33.0411 -10.1705 11.0181
head 12.0172 -5.46759 5.84121
rclavicle -5.56597e-015 2.3059e-014
rhumerus 43.7061 6.62093 -89.9784
rradius 15.8266
rwrist 0.993919
rhand -1.4954 4.66042
rfingers 7.12502
rthumb 24.1573 -23.8384
lclavicle -5.56597e-015 2.3059e-014
lhumerus 52.2489 22.2543 150.344
lradius 4.37967
lwrist 10.67
lhand -24.2974 31.1121
lfingers 7.12502
lthumb 2.19015 61.0806
rfemur -25.6379 13.5781 11.2566
rtibia 48.1442
rfoot -16.0184 -2.42173
rtoes -20.754
lfemur -16.6067 7.24458 -20.1235
ltibia 43.1149
lfoot -17.0219 5.34137
ltoes -15.4499
732
root 0.589314 15.1354 -1.96422 -5.27667 -15.3919 4.28598
lowerback 22.1711 -5.19132 -2.03495
upperback 14.4872 -7.33703 3.29902
thorax 4.42102 -4.17403 5.96325
lowerneck 1.09098 -5.61784 -15.1607
upperneck 32.9796 -10.4504 11.2916
head 12.0499 -5.55583 5.90992
rclavicle 9.85972e-014 -6.12257e-014
rhumerus 43.5776 5.85592 -91.0291
rradius 15.5448
rwrist 2.2817
rhand -0.693347 4.60618
rfingers 7.12502
rthumb 24.9261 -23.7883
lclavicle 9.85972e-014 -6.12257e-014
lhumerus 51.787 21.6846 149.294
lradius 4.34357
lwrist 11.6108
lhand -23.5471 31.6928
lfingers 7.12502
lthumb 2.91472 61.6526
rfemur -25.6235 13.2718 11.2031
rtibia 48.5043
rfoot -15.9751 -2.43762
rtoes -19.5906
lfemur -16.7702 7.06116 -20.1712
ltibia 43.4035
lfoot -16.9685 5.08468
ltoes -15.4365
733
root 0.579788 15.1191 -1.98915 -5.36892 -14.9017 4.29124
lowerback 22.2539 -4.95969 -1.96741
upperback 14.6728 -7.02141 3.17237
thorax 4.5233 -4.00429 5.73655
lowerneck 1.08902 -5.7952 -15.1291
upperneck 32.892 -10.7253 11.4834
head 12.0721 -5.64889 5.94643
rclavicle 3.49861e-014 -2.78299e-014
rhumerus 43.6277 5.6759 -91.3308
rradius 15.1349
rwrist 2.60501
rhand -0.0981124 4.6248
rfingers 7.12502
rthumb 25.4964 -23.6894
lclavicle 3.49861e-014 -2.78299e-014
lhumerus 51.3986 21.027 148.302
lradius 4.20402
lwrist 12.7929
lhand -23.5869 31.8208
lfingers 7.12502
lthumb 2.8763 61.7811
rfemur -25.6485 12.9742 11.2053
rtibia 48.8834
rfoot -15.9549 -2.48426
rtoes -18.393
lfemur -16.9777 6.88262 -20.1533
ltibia 43.694
lfoot -16.8627 4.73452
ltoes -15.4496
734
root 0.566724 15.1015 -2.01787 -5.42336 -14.4408 4.33233
lowerback 22.3208 -4.74277 -2.03039
upperback 14.8344 -6.74701 3.04813
thorax 4.63142 -3.86547 5.59081
lowerneck 1.14299 -5.88386 -15.3187
upperneck 32.8065 -10.8949 11.7821
head 12.088 -5.71548 6.08015
rclavicle 3.89618e-014 -2.94201e-014
rhumerus 43.5977 5.48377 -91.9523
rradius 14.8397
rwrist 3.02818
rhand -0.268001 4.87993
rfingers 7.12502
rthumb 25.3336 -23.4575
lclavicle 3.89618e-014 -2.94201e-014
lhumerus 51.1857 20.4821 147.318
lradius 4.19761
lwrist 13.9728
lhand -24.0168 31.7812
lfingers 7.12502
lthumb 2.4611 61.7468
rfemur -25.8081 12.7258 11.1826
rtibia 49.3085
rfoot -16.0623 -2.62997
rtoes -18.53
lfemur -17.2534 6.77184 -20.1631
ltibia 43.9646
lfoot -16.7254 4.47449
ltoes -15.7958
735
root 0.552777 15.0823 -2.04647 -5.39525 -13.9464 4.51096
lowerback 22.2801 -4.50455 -2.17748
upperback 14.9651 -6.45637 2.87086
thorax 4.7575 -3.71969 5.42307
lowerneck 1.42299 -5.94821 -15.4379
upperneck 32.5615 -11.0474 12.0849
head 11.9838 -5.77225 6.20502
rclavicle -8.50798e-014 5.56597e-014
rhumerus 43.533 4.83305 -93.0383
rradius 14.5691
rwrist 4.13513
rhand -0.582628 5.27236
rfingers 7.12502
rthumb 25.0322 -23.1074
lclavicle -8.50798e-014 5.56597e-014
lhumerus 50.8589 19.9296 146.244
lradius 4.3754
lwrist 14.9649
lhand -24.1693 32.2235
lfingers 7.12502
lthumb 2.31384 62.1907
rfemur -26.1049 12.4289 10.9784
rtibia 49.7476
rfoot -16.1862 -2.72431
rtoes -18.3938
lfemur -17.6548 6.64333 -20.3375
ltibia 44.2306
lfoot -16.5941 4.25628
ltoes -15.977
736
root 0.539725 15.0644 -2.07446 -5.35928 -13.4449 4.82973
lowerback 22.2247 -4.23707 -2.3723
upperback 15.0645 -6.13208 2.62707
thorax 4.84767 -3.55397 5.20567
lowerneck 1.85945 -6.00563 -15.3332
upperneck 32.2391 -11.1713 12.231
head 11.7863 -5.80892 6.2311
rclavicle 8.50798e-014 -6.59965e-014
rhumerus 43.5209 3.95729 -94.2463
rradius 14.2086
rwrist 5.44874
rhand -0.670165 5.7497
rfingers 7.12502
rthumb 24.9483 -22.6417
lclavicle 8.50798e-014 -6.59965e-014
lhumerus 50.2689 19.3008 145.142
lradius 4.81441
lwrist 15.8279
lhand -24.0803 32.6971
lfingers 7.12502
lthumb 2.39977 62.6633
rfemur -26.4575 12.0971 10.6046
rtibia 50.1868
rfoot -16.2917 -2.82157
rtoes -18.2027
lfemur -18.0928 6.48267 -20.6781
ltibia 44.4874
lfoot -16.4725 4.05655
ltoes -15.9368
737
root 0.529286 15.0458 -2.10356 -5.46383 -12.9076 4.99262
lowerback 22.3828 -4.02583 -2.38935
upperback 15.1874 -5.85166 2.40231
thorax 4.85037 -3.39745 4.93491
lowerneck 2.23088 -6.09862 -15.2701
upperneck 31.9891 -11.3254 12.3232
head 11.6395 -5.86787 6.24067
rclavicle -3.18055e-014 1.59028e-015
rhumerus 43.5216 2.77123 -95.8785
rradius 13.8199
rwrist 7.17401
rhand -0.171846 6.52504
rfingers 7.12502
rthumb 25.4258 -21.7993
lclavicle -3.18055e-014 1.59028e-015
lhumerus 49.6824 18.6994 144.057
lradius 5.29801
lwrist 16.9013
lhand -23.993 32.839
lfingers 7.12502
lthumb 2.48416 62.8042
rfemur -26.5853 11.7269 10.4333
rtibia 50.6009
rfoot -16.377 -2.98184
rtoes -18.2575
lfemur -18.3674 6.29143 -20.8426
ltibia 44.7395
lfoot -16.3753 3.84479
ltoes -15.9334
738
root 0.518593 15.0277 -2.13481 -5.54384 -12.398 4.95547
lowerback 22.6052 -3.77716 -2.15194
upperback 15.3163 -5.48008 2.21417
thorax 4.79838 -3.17528 4.55117
lowerneck 2.5398 -6.39075 -14.8899
upperneck 31.7136 -11.6664 12.0657
head 11.486 -5.99918 6.02909
rclavicle 0 2.22639e-014
rhumerus 43.5463 1.34888 -97.5163
rradius 13.5192
rwrist 8.82166
rhand 0.438062 7.55148
rfingers 7.12502
rthumb 26.0099 -20.6883
lclavicle 0 2.22639e-014
lhumerus 49.1439 17.9119 142.941
lradius 5.4107
lwrist 17.9463
lhand -23.8838 32.971
lfingers 7.12502
lthumb 2.58963 62.935
rfemur -26.6694 11.4391 10.489
rtibia 50.9815
rfoot -16.4706 -3.14402
rtoes -18.0621
lfemur -18.6349 6.09391 -20.7833
ltibia 45.015
lfoot -16.3365 3.60109
ltoes -16.0837
